<?xml version="1.0" encoding="UTF-8"?>
<svg width="114px" height="26px" viewBox="0 0 114 26" version="1.1" xmlns="http://www.w3.org/2000/svg" xmlns:xlink="http://www.w3.org/1999/xlink">
    <!-- Generator: Sketch 59 (86127) - https://sketch.com -->
    <title>Boeing_small</title>
    <desc>Created with Sketch.</desc>
    <g id="Symbols" stroke="none" stroke-width="1" fill="none" fill-rule="evenodd">
        <g id="Navigation-Drawer-/-Elements-/-Brand-/-Logo" transform="translate(-24.000000, -21.000000)" fill="#263746">
            <g id="Boeing_small" transform="translate(24.000000, 21.000000)">
                <path d="M18.444,11.961 C18.444,8.815 16.838,6.043 14.401,4.42 C15.853,2.927 17.422,1.451 19.093,0.041 C17.135,1.192 15.294,2.512 13.591,3.942 C12.336,3.282 10.907,2.907 9.392,2.907 C4.394,2.907 0.342,6.962 0.342,11.961 C0.342,14.215 1.168,16.284 2.534,17.869 C0.803,21.615 0.5,24.627 2.026,25.645 C3.663,26.736 7.22,24.762 9.355,21.537 C9.355,21.537 6.051,24.516 4.241,23.836 C3.121,23.408 3.119,21.703 4.039,19.258 C5.539,20.358 7.387,21.009 9.392,21.009 C11.871,21.009 14.115,20.015 15.751,18.399 L16.072,19.008 C20.016,18.684 31.795,18.373 31.795,18.373 C31.795,17.807 23.997,18.318 17.601,15.777 C18.14,14.617 18.444,13.323 18.444,11.961 Z M1.429,11.961 C1.429,7.562 4.995,3.995 9.392,3.995 C10.57,3.995 11.689,4.254 12.696,4.711 C8.379,8.525 5.04,12.959 3.062,16.793 C2.037,15.45 1.429,13.776 1.429,11.961 L1.429,11.961 Z M9.392,19.926 C7.532,19.926 5.823,19.285 4.465,18.218 C6.043,14.656 9.254,9.884 13.635,5.22 C15.872,6.63 17.357,9.12 17.357,11.961 C17.357,13.173 17.084,14.32 16.6,15.351 C15.208,14.707 13.912,13.902 12.813,12.885 L15.215,17.391 C13.762,18.951 11.689,19.926 9.392,19.926 L9.392,19.926 Z" id="Fill-1"></path>
                <polyline id="Fill-2" points="71.592 11.128 73.072 9.168 67.934 9.168 69.201 7.49 74.336 7.49 75.813 5.533 65.558 5.533 58.506 14.894 68.758 14.894 70.234 12.935 65.1 12.935 66.458 11.128 71.592 11.128"></polyline>
                <polyline id="Fill-3" points="78.717 5.533 71.664 14.894 76.783 14.894 83.836 5.533 78.717 5.533"></polyline>
                <polyline id="Fill-4" points="95.764 5.533 92.192 10.277 91.092 5.533 87.092 5.533 80.041 14.894 83.424 14.894 86.967 10.191 88.055 14.894 92.1 14.894 99.155 5.533 95.764 5.533"></polyline>
                <path d="M112.499,5.533 L104.278,5.53 C102.866,5.53 101.614,6.205 100.829,7.249 L96.583,12.885 C96.426,13.094 96.333,13.356 96.333,13.638 C96.333,14.333 96.889,14.894 97.583,14.894 L105.807,14.894 C107.215,14.894 108.465,14.218 109.254,13.176 L110.278,11.819 L111.461,11.819 L112.952,9.849 L106.647,9.849 L104.659,12.487 C104.456,12.759 104.133,12.935 103.766,12.935 L102.321,12.935 C102.137,12.935 101.991,12.788 101.991,12.607 C101.991,12.534 102.018,12.465 102.057,12.414 L105.432,7.933 C105.631,7.665 105.958,7.49 106.323,7.49 L107.774,7.49 C107.958,7.49 108.1,7.636 108.1,7.816 C108.1,7.885 108.077,7.956 108.036,8.011 L107.485,8.74 L112.598,8.74 L113.5,7.541 C113.661,7.331 113.754,7.068 113.754,6.787 C113.754,6.092 113.19,5.533 112.499,5.533" id="Fill-5"></path>
                <path d="M61.365,6.787 C61.365,6.092 60.801,5.533 60.109,5.533 L51.886,5.533 C50.478,5.533 49.228,6.205 48.44,7.249 L44.193,12.885 C44.036,13.098 43.942,13.356 43.942,13.638 C43.942,14.333 44.504,14.894 45.192,14.894 L53.418,14.894 C54.828,14.894 56.078,14.218 56.865,13.176 L61.113,7.541 C61.27,7.331 61.365,7.068 61.365,6.787 L61.365,6.787 Z M55.642,8.011 L52.27,12.487 C52.065,12.759 51.741,12.935 51.377,12.935 L49.926,12.935 C49.748,12.935 49.601,12.788 49.601,12.609 C49.601,12.534 49.626,12.465 49.666,12.414 L53.039,7.936 C53.244,7.665 53.569,7.49 53.933,7.49 L55.383,7.49 C55.563,7.49 55.709,7.636 55.709,7.816 C55.709,7.885 55.683,7.956 55.642,8.011 L55.642,8.011 Z" id="Fill-6"></path>
                <path d="M42.02,10.441 C43.027,10.213 43.903,9.631 44.505,8.83 L45.481,7.541 C45.638,7.331 45.732,7.068 45.732,6.787 C45.732,6.092 45.171,5.533 44.477,5.533 L34.104,5.533 L27.048,14.894 L37.786,14.894 C39.195,14.894 40.445,14.218 41.234,13.176 L42.228,11.854 C42.355,11.688 42.43,11.476 42.43,11.249 C42.43,10.919 42.268,10.624 42.02,10.441 L42.02,10.441 Z M37.27,11.65 L36.639,12.487 C36.432,12.759 36.111,12.935 35.745,12.935 L33.643,12.935 L35.003,11.128 L37.011,11.128 C37.19,11.128 37.336,11.275 37.336,11.454 C37.336,11.527 37.312,11.597 37.27,11.65 L37.27,11.65 Z M40.012,8.011 L39.474,8.725 C39.27,8.994 38.945,9.168 38.581,9.168 L36.479,9.168 L37.746,7.49 L39.753,7.49 C39.934,7.49 40.078,7.636 40.078,7.816 C40.078,7.885 40.054,7.956 40.012,8.011 L40.012,8.011 Z" id="Fill-7"></path>
            </g>
        </g>
    </g>
</svg>