<?xml version="1.0" encoding="UTF-8"?>
<svg width="48px" height="48px" viewBox="0 0 48 48" version="1.1" xmlns="http://www.w3.org/2000/svg" xmlns:xlink="http://www.w3.org/1999/xlink">
    <!-- Generator: Sketch 59 (86127) - https://sketch.com -->
    <title>noun_chip_2184268</title>
    <desc>Created with Sketch.</desc>
    <g id="Page-1" stroke="none" stroke-width="1" fill="none" fill-rule="evenodd" opacity="0.7">
        <g id="02" transform="translate(-359.000000, -186.000000)" fill="#000000" fill-rule="nonzero">
            <g id="noun_chip_2184268" transform="translate(359.000000, 186.000000)">
                <path d="M30.1710937,17.2289063 L17.8289063,17.2289063 C17.4972656,17.2289063 17.2289063,17.4972656 17.2289063,17.8289063 L17.2289063,30.1710938 C17.2289063,30.5027344 17.4972656,30.7710938 17.8289063,30.7710938 L30.1710938,30.7710938 C30.5027344,30.7710938 30.7710938,30.5027344 30.7710938,30.1710938 L30.7710938,17.8289063 C30.7710938,17.4972656 30.5027344,17.2289063 30.1710937,17.2289063 Z M29.5710938,29.5710937 L18.4289063,29.5710937 L18.4289063,18.4289063 L29.5710938,18.4289063 L29.5710938,29.5710937 L29.5710938,29.5710937 Z" id="Shape"></path>
                <path d="M7.27774656,31.2714844 C6.99005124,29.5351684 5.4823242,28.2058594 3.665625,28.2058594 C1.64414064,28.2058594 0,29.85 0,31.8714844 C0,33.8929687 1.64414064,35.5371094 3.665625,35.5371094 C5.4823242,35.5371094 6.99005124,34.2078003 7.27774656,32.4714844 L10.95,32.4714844 L10.95,36.45 C10.95,36.7816406 11.2183594,37.05 11.55,37.05 L15.5285156,37.05 L15.5285156,40.7222534 C13.7921997,41.0099488 12.4628906,42.5176758 12.4628906,44.334375 C12.4628906,46.3558594 14.1070313,48 16.1285156,48 C18.15,48 19.7941406,46.3558594 19.7941406,44.334375 C19.7941406,42.5176758 18.4648316,41.0099488 16.7285156,40.7222534 L16.7285156,37.05 L23.4,37.05 L23.4,43.35 C23.4,43.6816406 23.6683594,43.95 24,43.95 C24.3316406,43.95 24.6,43.6816406 24.6,43.35 L24.6,37.05 L31.2714844,37.05 L31.2714844,40.7222534 C29.5351684,41.0099488 28.2058594,42.5176758 28.2058594,44.334375 C28.2058594,46.3558594 29.85,48 31.8714844,48 C33.8929687,48 35.5371094,46.3558594 35.5371094,44.334375 C35.5371094,42.5176758 34.2078003,41.0099488 32.4714844,40.7222534 L32.4714844,37.05 L36.45,37.05 C36.7816406,37.05 37.05,36.7816406 37.05,36.45 L37.05,32.4714844 L40.7222534,32.4714844 C41.0099488,34.2078003 42.5176758,35.5371094 44.334375,35.5371094 C46.3558594,35.5371094 48,33.8929687 48,31.8714844 C48,29.85 46.3558594,28.2058594 44.334375,28.2058594 C42.5176758,28.2058594 41.0099488,29.5351684 40.7222534,31.2714844 L37.05,31.2714844 L37.05,24.6 L43.35,24.6 C43.6816406,24.6 43.95,24.3316406 43.95,24 C43.95,23.6683594 43.6816406,23.4 43.35,23.4 L37.05,23.4 L37.05,16.7285156 L40.7222534,16.7285156 C41.0099488,18.4648316 42.5176758,19.7941406 44.334375,19.7941406 C46.3558594,19.7941406 48,18.15 48,16.1285156 C48,14.1070313 46.3558594,12.4628906 44.334375,12.4628906 C42.5176758,12.4628906 41.0099488,13.7921997 40.7222534,15.5285156 L37.05,15.5285156 L37.05,11.55 C37.05,11.2183594 36.7816406,10.95 36.45,10.95 L32.4714844,10.95 L32.4714844,7.27774656 C34.2078003,6.99005124 35.5371094,5.4823242 35.5371094,3.665625 C35.5371094,1.64414064 33.8929687,0 31.8714844,0 C29.85,0 28.2058594,1.64414064 28.2058594,3.665625 C28.2058594,5.4823242 29.5351684,6.99005124 31.2714844,7.27774656 L31.2714844,10.95 L24.6,10.95 L24.6,4.65 C24.6,4.31835936 24.3316406,4.05 24,4.05 C23.6683594,4.05 23.4,4.31835936 23.4,4.65 L23.4,10.95 L16.7285156,10.95 L16.7285156,7.27774656 C18.4648316,6.99005124 19.7941406,5.4823242 19.7941406,3.665625 C19.7941406,1.64414064 18.15,0 16.1285156,0 C14.1070313,0 12.4628906,1.64414064 12.4628906,3.665625 C12.4628906,5.4823242 13.7921997,6.99005124 15.5285156,7.27774656 L15.5285156,10.95 L11.55,10.95 C11.2183594,10.95 10.95,11.2183594 10.95,11.55 L10.95,15.5285156 L7.27774656,15.5285156 C6.99005124,13.7921997 5.4823242,12.4628906 3.665625,12.4628906 C1.64414064,12.4628906 0,14.1070313 0,16.1285156 C0,18.15 1.64414064,19.7941406 3.665625,19.7941406 C5.4823242,19.7941406 6.99005124,18.4648316 7.27774656,16.7285156 L10.95,16.7285156 L10.95,23.4 L4.65,23.4 C4.31835936,23.4 4.05,23.6683594 4.05,24 C4.05,24.3316406 4.31835936,24.6 4.65,24.6 L10.95,24.6 L10.95,31.2714844 L7.27774656,31.2714844 Z M3.665625,34.3371094 C2.30625,34.3371094 1.2,33.2308594 1.2,31.8714844 C1.2,30.5121094 2.30625,29.4058594 3.665625,29.4058594 C5.025,29.4058594 6.13125,30.5121094 6.13125,31.8714844 C6.13125,33.2308594 5.025,34.3371094 3.665625,34.3371094 Z M18.5941406,44.334375 C18.5941406,45.69375 17.4878906,46.8 16.1285156,46.8 C14.7691406,46.8 13.6628906,45.69375 13.6628906,44.334375 C13.6628906,42.975 14.7691406,41.86875 16.1285156,41.86875 C17.4878906,41.86875 18.5941406,42.975 18.5941406,44.334375 Z M34.3371094,44.334375 C34.3371094,45.69375 33.2308594,46.8 31.8714844,46.8 C30.5121094,46.8 29.4058594,45.69375 29.4058594,44.334375 C29.4058594,42.975 30.5121094,41.86875 31.8714844,41.86875 C33.2308594,41.86875 34.3371094,42.975 34.3371094,44.334375 Z M44.334375,29.4058594 C45.69375,29.4058594 46.8,30.5121094 46.8,31.8714844 C46.8,33.2308594 45.69375,34.3371094 44.334375,34.3371094 C42.975,34.3371094 41.86875,33.2308594 41.86875,31.8714844 C41.86875,30.5121094 42.975,29.4058594 44.334375,29.4058594 Z M44.334375,13.6628906 C45.69375,13.6628906 46.8,14.7691406 46.8,16.1285156 C46.8,17.4878906 45.69375,18.5941406 44.334375,18.5941406 C42.975,18.5941406 41.86875,17.4878906 41.86875,16.1285156 C41.86875,14.7691406 42.975,13.6628906 44.334375,13.6628906 Z M29.4058594,3.665625 C29.4058594,2.30625 30.5121094,1.2 31.8714844,1.2 C33.2308594,1.2 34.3371094,2.30625 34.3371094,3.665625 C34.3371094,5.025 33.2308594,6.13125 31.8714844,6.13125 C30.5121094,6.13125 29.4058594,5.025 29.4058594,3.665625 Z M13.6628906,3.665625 C13.6628906,2.30625 14.7691406,1.2 16.1285156,1.2 C17.4878906,1.2 18.5941406,2.30625 18.5941406,3.665625 C18.5941406,5.025 17.4878906,6.13125 16.1285156,6.13125 C14.7691406,6.13125 13.6628906,5.025 13.6628906,3.665625 Z M3.665625,18.5941406 C2.30625,18.5941406 1.2,17.4878906 1.2,16.1285156 C1.2,14.7691406 2.30625,13.6628906 3.665625,13.6628906 C5.025,13.6628906 6.13125,14.7691406 6.13125,16.1285156 C6.13125,17.4878906 5.025,18.5941406 3.665625,18.5941406 Z M12.15,12.15 L35.85,12.15 L35.85,35.85 L12.15,35.85 L12.15,12.15 Z" id="Shape"></path>
            </g>
        </g>
    </g>
</svg>